<svg xmlns="http://www.w3.org/2000/svg" fill="none" viewBox="0 0 200 200"><g transform="matrix(1,0,0,1,0,0)"><g><g><path fill="#f8b6ce" d="M130.533 57.53C128.522 55.5297 125.855 54.325 123.025 54.1386C120.195 53.9521 117.393 54.7967 115.137 56.516C112.881 58.2353 111.324 60.7131 110.753 63.4915C110.183 66.2698 110.637 69.1608 112.033 71.63C113.458 70.719 116.763 68.078 116.592 69.35C116.402 70.623 113.401 73.188 113.401 73.188C113.417 73.314 113.423 73.441 113.42 73.568C114.456 74.7546 115.721 75.7203 117.139 76.4075C118.557 77.0948 120.098 77.4895 121.672 77.5681C123.245 77.6467 124.819 77.4076 126.298 76.8651C127.777 76.3226 129.132 75.4878 130.281 74.4104C131.431 73.3331 132.352 72.0352 132.989 70.5943C133.626 69.1534 133.967 67.599 133.99 66.0236C134.014 64.4483 133.72 62.8844 133.126 61.4251C132.532 59.9659 131.65 58.6411 130.533 57.53Z"></path><path fill="#f8b6ce" d="M103.765 115.835C102.339 114.529 100.756 113.406 99.053 112.491C89.403 107.226 79.4526 102.531 69.253 98.43C68.965 97.365 68.737 96.647 68.737 96.647L57.927 93.512C57.927 93.512 45.217 103.562 48.314 112.567C50.024 117.567 56.787 124.251 79.604 129.494C77.2709 141.361 74.2844 153.09 70.658 164.628C71.543 162.711 76.602 161.576 82.587 162.247C89.027 162.969 94.043 165.306 93.815 167.491L93.89 167.586C95.3148 154.555 95.8021 141.438 95.348 128.337L114.892 157.226C113.792 155.67 116.73 151.199 121.552 147.126C126.452 142.984 131.431 140.837 132.685 142.3L132.761 142.338L103.765 115.835Z"></path></g><g><path fill="#E9E9E9" d="M177.306 108.692C176.876 107.987 176.246 107.426 175.497 107.079C174.748 106.732 173.913 106.615 173.097 106.743C172.282 106.871 171.522 107.238 170.915 107.797C170.308 108.357 169.88 109.084 169.686 109.886C169.492 110.688 169.541 111.53 169.825 112.305C170.11 113.08 170.618 113.754 171.285 114.24C171.952 114.726 172.748 115.004 173.573 115.037C174.398 115.071 175.214 114.859 175.919 114.429C176.387 114.144 176.795 113.769 177.118 113.327C177.442 112.884 177.674 112.381 177.803 111.848C177.932 111.315 177.955 110.762 177.869 110.221C177.784 109.679 177.592 109.16 177.306 108.692Z"></path><path fill="#E9E9E9" d="M141.875 131.907C142.305 132.612 142.935 133.173 143.684 133.52C144.433 133.867 145.268 133.984 146.084 133.856C146.899 133.728 147.659 133.361 148.266 132.802C148.873 132.242 149.301 131.515 149.495 130.713C149.689 129.911 149.64 129.069 149.356 128.294C149.071 127.519 148.563 126.845 147.896 126.359C147.229 125.873 146.433 125.595 145.608 125.562C144.783 125.528 143.967 125.74 143.262 126.17C142.794 126.455 142.386 126.83 142.063 127.273C141.739 127.715 141.507 128.218 141.378 128.751C141.249 129.284 141.226 129.837 141.312 130.378C141.397 130.92 141.589 131.439 141.875 131.907Z"></path><path fill="#E9E9E9" d="M168.073 41.628C168.402 41.9429 168.816 42.1532 169.264 42.2324C169.713 42.3115 170.174 42.2559 170.591 42.0726C171.007 41.8893 171.36 41.5865 171.605 41.2025C171.849 40.8186 171.974 40.3708 171.964 39.9157C171.954 39.4607 171.809 39.019 171.547 38.6464C171.286 38.2738 170.92 37.9872 170.495 37.8228C170.071 37.6583 169.607 37.6235 169.163 37.7227C168.719 37.8219 168.314 38.0507 168 38.38C167.581 38.8215 167.354 39.4106 167.367 40.019C167.381 40.6275 167.635 41.2058 168.073 41.628Z"></path><path fill="#E9E9E9" d="M27.715 43.832C27.5262 44.127 27.4259 44.4698 27.4259 44.82C27.4259 45.1702 27.5262 45.5131 27.715 45.808C27.8957 46.0201 28.1245 46.1859 28.3823 46.2917C28.6401 46.3974 28.9194 46.4401 29.197 46.416L27.715 43.832Z"></path><path fill="#E9E9E9" d="M36.625 39.463C36.4622 39.2156 36.2271 39.0245 35.9516 38.9157C35.6762 38.8068 35.3739 38.7857 35.086 38.855C35.599 39.672 36.093 40.508 36.625 41.324C36.781 41.0387 36.8627 40.7187 36.8627 40.3935C36.8627 40.0683 36.781 39.7483 36.625 39.463Z"></path><path fill="#E9E9E9" d="M132.794 142.318C131.958 141.33 129.45 141.957 126.41 143.724L130.571 148.074C132.661 145.51 133.592 143.287 132.794 142.318Z"></path><path fill="#E9E9E9" d="M117.937 150.753C115.391 153.66 114.156 156.263 115.05 157.327C115.961 158.409 118.868 157.555 122.269 155.389L117.937 150.753Z"></path><path fill="#E9E9E9" d="M75.59 50.918C74.9602 50.2929 74.1331 49.9058 73.2497 49.8226C72.3662 49.7394 71.4814 49.9654 70.746 50.462C69.3437 50.1471 67.8789 50.2664 66.546 50.804C66.1202 50.0919 65.517 49.5024 64.7955 49.0929C64.0739 48.6834 63.2585 48.4679 62.4288 48.4675C61.5991 48.4671 60.7835 48.6818 60.0615 49.0906C59.3395 49.4993 58.7358 50.0883 58.3092 50.8C57.8827 51.5116 57.6479 52.3217 57.6278 53.1511C57.6077 53.9806 57.8029 54.801 58.1944 55.5326C58.5859 56.2641 59.1604 56.8816 59.8617 57.3249C60.563 57.7682 61.3673 58.0222 62.196 58.062C62.3658 59.6712 63.0832 61.1734 64.228 62.317C64.228 62.317 67.838 66.687 65.577 68.89C66.3355 68.2974 66.9525 67.5432 67.383 66.6823C67.8136 65.8214 68.0469 64.8754 68.066 63.913C68.0833 63.7242 68.0506 63.5341 67.971 63.362C65.654 60.722 68.009 58.575 69.035 60.417C69.529 61.31 69.852 61.31 70.08 60.835C70.954 58.48 74.944 55.269 75.912 59.468V59.449C76.0655 60.2499 76.1356 61.0646 76.121 61.88C76.121 61.406 76.14 59.924 76.14 58.518C76.2955 57.6036 76.2697 56.6675 76.064 55.763C76.5625 55.0269 76.788 54.1397 76.7014 53.255C76.6149 52.3702 76.2217 51.5435 75.59 50.918Z"></path><path fill="#E9E9E9" d="M93.886 167.548C94.058 166.066 91.796 164.527 88.338 163.448L87.616 170.325C91.207 170.037 93.716 169.011 93.886 167.548Z"></path><path fill="#E9E9E9" d="M70.556 164.945C70.385 166.484 72.856 168.118 76.597 169.182L77.397 162.115C73.52 162.361 70.746 163.406 70.556 164.945Z"></path><path fill="#E9E9E9" d="M141.761 156.491C136.586 158.223 131.164 159.102 125.707 159.091L128.177 161.75C135.384 164.301 143.135 164.91 150.652 163.517C147.92 160.895 144.943 158.542 141.761 156.491Z"></path><path fill="#E9E9E9" d="M88.414 184.608C83.9212 181.294 79.8056 177.497 76.141 173.285L75.7 177.1C76.84 180.273 79.177 186.846 87.973 195C88.946 192.226 88.813 188.313 88.414 184.608Z"></path><path fill="#E9E9E9" d="M74.394 81.961C74.1782 83.4319 73.859 84.8859 73.439 86.312C74.2048 86.8795 75.0128 87.3876 75.856 87.832C75.4 85.875 74.887 83.557 74.394 81.961Z"></path><path fill="#E9E9E9" d="M69.587 67.409C69.948 68.359 70.287 69.346 70.613 70.487C70.574 69.7859 70.7461 69.0893 71.107 68.487C70.5301 68.2386 70.0122 67.8713 69.587 67.409Z"></path><path fill="#E9E9E9" d="M79.637 129.513L77.319 140.818L81.765 129.989L79.637 129.513Z"></path><path fill="#E9E9E9" d="M53.725 75.6L55.357 81.541L56.857 78.084C56.857 78.084 53.9 75.735 53.725 75.6Z"></path><path fill="#E9E9E9" d="M96.735 33.972L87.293 31.521L90.846 17.862L96.393 15.905L100.288 20.331L96.735 33.972Z"></path></g><g><path stroke="#000000" stroke-linecap="round" stroke-linejoin="round" stroke-width=".75" d="M141.305 26.772C141.437 27.2681 141.418 27.7921 141.252 28.2777C141.086 28.7633 140.779 29.1888 140.371 29.5002C139.963 29.8116 139.472 29.995 138.96 30.0273C138.448 30.0595 137.937 29.9391 137.493 29.6813C137.05 29.4235 136.692 29.0399 136.466 28.579C136.241 28.118 136.157 27.6005 136.225 27.0918C136.293 26.5831 136.511 26.1061 136.85 25.7211C137.19 25.3361 137.636 25.0605 138.132 24.929C138.797 24.7541 139.504 24.8498 140.099 25.1952C140.694 25.5407 141.127 26.1076 141.305 26.772V26.772Z"></path><path stroke="#000000" stroke-linecap="round" stroke-linejoin="round" stroke-width=".75" d="M149.455 31.426C149.587 31.9221 149.569 32.4461 149.402 32.9318C149.236 33.4175 148.93 33.8431 148.522 34.1546C148.114 34.4662 147.623 34.6498 147.111 34.6822C146.598 34.7146 146.088 34.5943 145.644 34.3366C145.2 34.0789 144.843 33.6953 144.617 33.2344C144.391 32.7735 144.307 32.2559 144.375 31.7472C144.443 31.2384 144.661 30.7614 145 30.3763C145.34 29.9913 145.786 29.7155 146.282 29.584C146.947 29.4091 147.654 29.5047 148.249 29.8499C148.843 30.1951 149.277 30.7618 149.455 31.426V31.426Z"></path><path stroke="#000000" stroke-linecap="round" stroke-linejoin="round" stroke-width=".75" d="M138.645 36.955L147.08 22.459"></path><path stroke="#000000" stroke-linecap="round" stroke-linejoin="round" stroke-width=".75" d="M177.306 108.692C176.876 107.987 176.246 107.426 175.497 107.079C174.748 106.732 173.913 106.615 173.097 106.743C172.282 106.871 171.522 107.238 170.915 107.797C170.308 108.357 169.88 109.084 169.686 109.886C169.492 110.688 169.541 111.53 169.825 112.305C170.11 113.08 170.618 113.754 171.285 114.24C171.952 114.726 172.748 115.004 173.573 115.037C174.398 115.071 175.214 114.859 175.919 114.429C176.387 114.144 176.795 113.769 177.118 113.327C177.442 112.884 177.674 112.381 177.803 111.848C177.932 111.315 177.955 110.762 177.869 110.221C177.784 109.679 177.592 109.16 177.306 108.692Z"></path><path stroke="#000000" stroke-linecap="round" stroke-linejoin="round" stroke-width=".75" d="M141.875 131.907C142.305 132.612 142.935 133.173 143.684 133.52C144.433 133.867 145.268 133.984 146.084 133.856C146.899 133.728 147.659 133.361 148.266 132.802C148.873 132.242 149.301 131.515 149.495 130.713C149.689 129.911 149.64 129.069 149.356 128.294C149.071 127.519 148.563 126.845 147.896 126.359C147.229 125.873 146.433 125.595 145.608 125.562C144.783 125.528 143.967 125.74 143.262 126.17C142.794 126.455 142.386 126.83 142.063 127.273C141.739 127.715 141.507 128.218 141.378 128.751C141.249 129.284 141.226 129.837 141.312 130.378C141.397 130.92 141.589 131.439 141.875 131.907Z"></path><path stroke="#000000" stroke-linecap="round" stroke-linejoin="round" stroke-width=".75" d="M170.258 113.308L149.132 127.804"></path><path stroke="#000000" stroke-linecap="round" stroke-linejoin="round" stroke-width=".75" d="M173.127 106.754L161.215 47.556L169.669 39.976"></path><path stroke="#000000" stroke-linecap="round" stroke-linejoin="round" stroke-width=".75" d="M170.866 95.469L128.994 118.324L106.557 98.167L164.027 61.557L170.866 95.469Z"></path><path stroke="#000000" stroke-linecap="round" stroke-linejoin="round" stroke-width=".75" d="M168.073 41.628C168.402 41.9429 168.816 42.1532 169.264 42.2324C169.713 42.3115 170.174 42.2559 170.591 42.0726C171.007 41.8893 171.36 41.5865 171.605 41.2025C171.849 40.8186 171.974 40.3708 171.964 39.9157C171.954 39.4607 171.809 39.019 171.547 38.6464C171.286 38.2738 170.92 37.9872 170.495 37.8228C170.071 37.6583 169.607 37.6235 169.163 37.7227C168.719 37.8219 168.314 38.0507 168 38.38C167.581 38.8215 167.354 39.4106 167.367 40.019C167.381 40.6275 167.635 41.2058 168.073 41.628V41.628Z"></path><path stroke="#000000" stroke-linecap="round" stroke-linejoin="round" stroke-width=".75" d="M107.412 82.7C107.812 82.568 114.712 80.276 118.491 76.983"></path><path stroke="#000000" stroke-linecap="round" stroke-linejoin="round" stroke-width=".75" d="M116.474 77.592C116.441 77.0344 116.359 76.4807 116.231 75.937"></path><path stroke="#000000" stroke-linecap="round" stroke-linejoin="round" stroke-width=".75" d="M113.416 73.564C113.587 73.773 113.771 73.964 113.967 74.172C116.075 76.2717 118.901 77.4931 121.875 77.5894C124.849 77.6858 127.748 76.6499 129.988 74.691C132.227 72.7322 133.64 69.9964 133.94 67.0363C134.241 64.0762 133.407 61.1124 131.606 58.7436C129.806 56.3748 127.174 54.7776 124.241 54.2746C121.309 53.7716 118.294 54.4004 115.808 56.0338C113.321 57.6672 111.546 60.1836 110.843 63.0746C110.14 65.9656 110.56 69.0158 112.019 71.609"></path><path stroke="#000000" stroke-linecap="round" stroke-linejoin="round" stroke-width=".75" d="M55.376 81.676L56.839 78.105L53.725 75.602"></path><path stroke="#000000" stroke-linecap="round" stroke-linejoin="round" stroke-width=".75" d="M70.616 70.573L69.53 67.373C70.0372 67.776 70.5786 68.1341 71.148 68.443"></path><path stroke="#000000" stroke-linecap="round" stroke-linejoin="round" stroke-width=".75" d="M72.855 74.058C69.606 74.001 66.224 71.626 63.337 68.967"></path><path stroke="#000000" stroke-linecap="round" stroke-linejoin="round" stroke-width=".75" d="M63.318 68.967L62.672 73.773L68.561 73.279L72.456 77.554L72.855 74.058"></path><path stroke="#000000" stroke-linecap="round" stroke-linejoin="round" stroke-width=".75" d="M35.086 38.855C35.3739 38.7883 35.6753 38.8107 35.9502 38.9193C36.2251 39.0279 36.4604 39.2175 36.625 39.463C37.446 40.6 36.093 42.939 33.643 44.687C31.193 46.435 28.533 46.928 27.734 45.787C27.5455 45.4919 27.4453 45.1491 27.4453 44.799C27.4453 44.4488 27.5455 44.106 27.734 43.811"></path><path stroke="#000000" stroke-linecap="round" stroke-linejoin="round" stroke-width=".75" d="M109.92 77.82C110.927 77.136 113.644 75.198 113.397 73.165C113.397 73.165 116.397 70.6 116.588 69.328C116.779 68.056 113.397 70.733 111.988 71.628C109.622 73.1488 107.16 74.5134 104.616 75.713"></path><path stroke="#000000" stroke-linecap="round" stroke-linejoin="round" stroke-width=".75" d="M74.394 81.961L75.856 87.832"></path><path stroke="#000000" stroke-linecap="round" stroke-linejoin="round" stroke-width=".75" d="M76.122 61.88C76.122 61.405 76.141 59.924 76.141 58.518C76.2965 57.6035 76.2707 56.6674 76.065 55.763C76.5596 55.0261 76.7826 54.1401 76.6958 53.2569C76.6089 52.3737 76.2177 51.5481 75.589 50.9217C74.9603 50.2952 74.1333 49.9069 73.2498 49.8232C72.3663 49.7396 71.4811 49.9657 70.746 50.463C69.3438 50.1472 67.8786 50.2665 66.546 50.805C66.1202 50.0929 65.517 49.5034 64.7955 49.0939C64.0739 48.6844 63.2585 48.4689 62.4288 48.4685C61.5991 48.4681 60.7835 48.6828 60.0615 49.0915C59.3395 49.5003 58.7358 50.0893 58.3092 50.8009C57.8827 51.5126 57.6479 52.3226 57.6278 53.1521C57.6077 53.9815 57.8029 54.802 58.1944 55.5335C58.5859 56.265 59.1604 56.8826 59.8617 57.3259C60.563 57.7692 61.3673 58.0231 62.196 58.063C62.3657 59.6723 63.083 61.1744 64.228 62.318C64.228 62.318 68 66.884 65.418 69.035"></path><path stroke="#000000" stroke-linecap="round" stroke-linejoin="round" stroke-width=".75" d="M122.269 155.389C118.869 157.555 115.946 158.406 115.03 157.327C113.23 155.202 119.273 149.127 121.718 147.063C124.018 145.122 131.009 140.201 132.794 142.318C133.594 143.267 132.661 145.529 130.571 148.094"></path><path stroke="#000000" stroke-linecap="round" stroke-linejoin="round" stroke-width=".75" d="M141.761 156.491C136.586 158.224 131.164 159.102 125.707 159.091"></path><path stroke="#000000" stroke-linecap="round" stroke-linejoin="round" stroke-width=".75" d="M126.41 143.743L131.255 148.797C133.227 151.06 135.572 152.968 138.189 154.439C142.76 156.858 146.962 159.916 150.671 163.52C143.154 164.913 135.403 164.304 128.196 161.753L117.937 150.753"></path><path stroke="#000000" stroke-linecap="round" stroke-linejoin="round" stroke-width=".75" d="M87.616 170.321C91.207 170.037 93.725 169.01 93.886 167.548C94.205 164.635 86.709 162.833 83.455 162.397C79.54 161.873 70.9 161.845 70.555 164.945C70.384 166.484 72.855 168.118 76.596 169.182"></path><path stroke="#000000" stroke-linecap="round" stroke-linejoin="round" stroke-width=".75" d="M76.141 173.285C79.7913 177.511 83.9085 181.309 88.414 184.608"></path><path stroke="#000000" stroke-linecap="round" stroke-linejoin="round" stroke-width=".75" d="M77.41 162.17L75.7 177.085C76.84 180.257 79.177 186.831 87.973 194.985C89.382 190.898 88.431 184.2 87.764 179.92C87.2963 176.966 87.2197 173.964 87.536 170.99C87.622 170.198 87.487 171.519 88.331 163.473"></path><path stroke="#000000" stroke-linecap="round" stroke-linejoin="round" stroke-width=".75" d="M76.863 142.242L81.727 129.932L79.581 129.454"></path><path stroke="#000000" stroke-linecap="round" stroke-linejoin="round" stroke-width=".75" d="M70.665 164.541C74.3254 153.031 77.3026 141.315 79.581 129.454C56.762 124.218 50.005 117.506 48.309 112.529C45.209 103.529 57.922 93.474 57.922 93.474"></path><path stroke="#000000" stroke-linecap="round" stroke-linejoin="round" stroke-width=".75" d="M67.611 103.125C76.2286 107.834 84.3722 113.363 91.929 119.635C92.9275 120.438 93.7437 121.445 94.3234 122.588C94.903 123.731 95.2329 124.985 95.291 126.265C95.8697 140.041 95.4064 153.842 93.905 167.548"></path><path stroke="#000000" stroke-linecap="round" stroke-linejoin="round" stroke-width=".75" d="M68.732 96.609C69.5664 99.229 70.1267 101.928 70.404 104.664"></path><path stroke="#000000" stroke-linecap="round" stroke-linejoin="round" stroke-width=".75" d="M114.828 157.007L95.367 128.241"></path><path stroke="#000000" stroke-linecap="round" stroke-linejoin="round" stroke-width=".75" d="M69.226 98.376C79.4356 102.494 89.4006 107.194 99.072 112.453C100.778 113.363 102.362 114.487 103.784 115.797L132.584 142.115"></path><path stroke="#000000" stroke-linecap="round" stroke-linejoin="round" stroke-width=".75" d="M36.606 41.324C36.606 41.324 31.933 35.055 32.731 30.457C33.548 25.746 32.605 25.657 30.546 29.907C29.183 32.721 28.722 39.292 28.722 39.292"></path><path stroke="#000000" stroke-linecap="round" stroke-linejoin="round" stroke-width=".75" d="M29.2 46.416C29.2 46.416 25.014 39.238 22.722 34.316C21.007 30.633 23.216 32.093 23.843 33.328"></path><path stroke="#000000" stroke-linecap="round" stroke-linejoin="round" stroke-width=".75" d="M27.164 30.438C26.8788 29.0628 26.7261 27.6634 26.708 26.259C26.708 22.041 27.739 22.249 28.646 25.822C29.0691 27.5012 29.5829 29.1563 30.185 30.78"></path><path stroke="#000000" stroke-linecap="round" stroke-linejoin="round" stroke-width=".75" d="M27.943 29.717C26.2676 31.5567 25.2749 33.916 25.131 36.4"></path><path stroke="#000000" stroke-linecap="round" stroke-linejoin="round" stroke-width=".75" d="M26.86 28.463C26.48 27.589 26.101 26.563 25.739 25.463C24.468 21.587 23.669 22.442 24.087 25.976C24.3881 28.4394 24.9875 30.8572 25.872 33.176"></path><path stroke="#000000" stroke-linecap="round" stroke-linejoin="round" stroke-width=".75" d="M24.485 28.539C23.175 24.302 22.201 25.063 22.738 28.939C23.1492 31.5293 23.9563 34.041 25.131 36.386"></path><path stroke="#000000" stroke-linecap="round" stroke-linejoin="round" stroke-width=".75" d="M49.696 136.733L47.055 146.973"></path><path stroke="#000000" stroke-linecap="round" stroke-linejoin="round" stroke-width=".75" d="M53.496 143.192L43.256 140.532"></path><path stroke="#000000" stroke-linecap="round" stroke-linejoin="round" stroke-width=".75" d="M96.735 33.972L87.293 31.521L90.846 17.862L96.393 15.905L100.288 20.331L96.735 33.972Z"></path><path stroke="#000000" stroke-linecap="round" stroke-linejoin="round" stroke-width=".75" d="M96.564 19.743C96.5078 19.9572 96.3893 20.1499 96.2235 20.2968C96.0578 20.4437 95.8522 20.5381 95.6328 20.5682C95.4134 20.5983 95.19 20.5626 94.9908 20.4658C94.7917 20.3689 94.6257 20.2152 94.5139 20.024C94.4021 19.8328 94.3495 19.6128 94.3627 19.3917C94.3759 19.1706 94.4544 18.9585 94.5882 18.782C94.722 18.6055 94.9051 18.4726 95.1144 18.4002C95.3237 18.3278 95.5497 18.319 95.764 18.375C96.0482 18.4556 96.2901 18.6431 96.4392 18.8981C96.5884 19.153 96.6331 19.4558 96.564 19.743V19.743Z"></path><path stroke="#000000" stroke-linecap="round" stroke-linejoin="round" stroke-width=".75" d="M95.662 18.35C101.819 14.758 94.307 8.589 100.5 5"></path><path stroke="#000000" stroke-linecap="round" stroke-linejoin="round" stroke-width=".75" d="M124.643 61.633L119.856 70.049"></path><path stroke="#000000" stroke-linecap="round" stroke-linejoin="round" stroke-width=".75" d="M126.467 68.245L118.051 63.438"></path><path stroke="#000000" stroke-linecap="round" stroke-linejoin="round" stroke-width=".75" d="M27.63 45.644C32.513 55.375 42.27 66.222 53.73 75.602C55.446 81.4806 56.8479 87.4464 57.93 93.474L68.74 96.609C70.5564 93.2942 72.1295 89.8518 73.447 86.309C76.347 88.277 79.5075 89.8307 82.837 90.925C84.477 91.5127 86.2633 91.5527 87.928 91.039C94.6411 88.9986 101.194 86.465 107.534 83.459C107.189 80.4169 106.02 77.5266 104.153 75.1C98.4711 77.7106 92.4944 79.6245 86.353 80.8C81.2244 78.9647 76.3516 76.4813 71.853 73.41C70.253 72.357 70.417 70.084 71.153 68.439C73.059 69.372 75.987 69.555 76.127 62.011C76.276 54.411 71.318 57.952 70.158 60.653C69.892 61.274 69.619 61.453 69.041 60.415C68.018 58.571 65.641 60.715 67.977 63.36C68.0723 63.6671 68.0982 63.9916 68.053 64.31C67.269 68.439 65.184 70.81 61.86 68.01C52.207 59.899 44.59 52.602 36.63 39.456"></path><path stroke="#000000" stroke-linecap="round" stroke-linejoin="round" stroke-width=".75" d="M73.439 86.312C74.1971 84.3663 74.5164 82.2773 74.374 80.194"></path></g></g></g></svg>