<svg xmlns="http://www.w3.org/2000/svg" fill="none" viewBox="0 0 200 200"><g transform="matrix(1,0,0,1,0,0)"><g><g><path fill="#f8b6ce" d="M42.354 157.418C42.1437 156.787 42.0639 156.119 42.1194 155.456C42.1749 154.793 42.3646 154.148 42.677 153.561C40.0297 151.298 37.0821 149.412 33.918 147.956C31.618 150.362 28.752 153.822 27.648 154.986C29.548 153.732 46.971 166.215 47.655 169.331C47.978 165.037 43.558 161.192 42.354 157.418Z"></path><path fill="#f8b6ce" d="M92.97 150.407C92.2123 149.514 91.8248 148.365 91.887 147.196C88.604 146.652 85.2661 146.517 81.95 146.796C81.9074 147.858 81.8073 148.918 81.65 149.969C81.289 152.269 80.776 153.18 80.415 155.327C80.966 153.256 102.36 157.094 103.348 159.488C102.584 154.891 95.687 153.751 92.97 150.407Z"></path><path fill="#f8b6ce" d="M183.486 122.705C182.365 121.905 179.686 120.273 176.186 118.183L159.886 121.622L155.1 99.069L157.779 98.499C155.673 84.376 155.267 82.161 153.485 74.635C148.299 80.167 135.758 83.005 130.362 81.494C130.504 81.92 130.609 82.194 131.084 83.337C122.284 102.546 120.919 106.061 120.653 109.215C120.353 112.915 120.748 115.39 127.816 142.845C132.116 144.045 139.303 142.023 141.648 139.539C139.672 131.008 137.658 122.515 135.473 111.4C135.742 110.658 136.06 109.935 136.423 109.234C138.339 103.652 139.576 97.8596 140.109 91.982C143.637 107.972 144.674 113.421 147.101 116.131C149.552 118.848 152.401 120.577 176.114 133.931C179.67 133.01 184.1 126.651 183.486 122.705Z"></path><path fill="#f8b6ce" d="M47.313 115.485C35.779 116.908 34.013 117.112 24.19 118.392L44.482 132.6C45.358 131.714 49.467 127.556 50.334 126.653C49.874 125.2 48.044 118.407 47.313 115.485Z"></path><path fill="#f8b6ce" d="M31.144 113.262C31.144 113.251 31.182 109.69 31.182 109.69C30.2659 109.824 29.438 110.31 28.874 111.044C28.31 111.778 28.0542 112.703 28.161 113.623L28.636 117.023L31.6 116.643L31.144 113.262Z"></path><path fill="#f8b6ce" d="M43.7 111.723C43.5907 110.858 43.1628 110.066 42.5 109.5C41.7639 109.76 40.9978 109.926 40.22 109.994C40.381 110.694 40.432 110.942 40.6 111.78C40.756 111.936 40.709 111.902 41.189 115.48L44.153 115.1L43.7 111.723Z"></path></g><g><path fill="#E9E9E9" d="M183.467 124.567C182.674 128.118 180.57 131.239 177.577 133.307C177.877 137.183 179.534 146.018 181.111 148.393C184.211 144.688 188.255 131.35 188.464 126.239C186.843 125.557 185.172 124.998 183.467 124.567V124.567Z"></path><path fill="#E9E9E9" d="M140.565 140.451C137.455 142.292 133.9 143.244 130.286 143.206C127.439 146.85 125.211 150.938 123.693 155.306C128.593 154.755 139.615 149.815 143.263 146.072C142.565 144.108 141.661 142.224 140.565 140.451V140.451Z"></path><path fill="#E9E9E9" d="M46.651 169.831C42.419 168.8 25.9 157.893 27.515 155.1C28.97 153.354 45.381 165.15 47.432 168.835C47.9 169.683 47.664 170.079 46.651 169.831Z"></path><path fill="#E9E9E9" d="M94.021 156.181C88.041 154.938 81.271 154.213 80.494 155.219C78.83 157.371 90.805 159.419 93.509 159.77C97.979 160.356 102.122 160.508 103.157 159.981C105.288 158.9 96.506 156.7 94.021 156.181Z"></path><path fill="#E9E9E9" d="M95.687 149.343C95.649 148.659 94.737 147.785 91.906 147.215C91.8348 148.386 92.2234 149.538 92.989 150.426C94.908 150.426 95.725 149.913 95.687 149.343Z"></path><path fill="#E9E9E9" d="M79.024 148.279C78.948 149.096 79.917 149.666 81.665 149.989C81.817 148.925 81.912 147.88 81.965 146.816C79.955 147.063 79.1 147.6 79.024 148.279Z"></path><path fill="#E9E9E9" d="M33.918 147.937C33.101 148.773 32.118 149.894 31.125 151.015C29.643 149.799 29.125 148.431 29.662 147.709L29.776 147.576C30.327 147.063 31.676 147.006 33.918 147.937Z"></path><path fill="#E9E9E9" d="M42.7 153.561C45.056 155.575 45.952 157.061 45.645 157.703C45.382 158.255 44.239 158.235 42.358 157.418C42.1394 156.787 42.0569 156.118 42.1159 155.453C42.1748 154.788 42.3739 154.143 42.7 153.561V153.561Z"></path><path fill="#E9E9E9" d="M130.7 82.425C129.458 78.951 130.572 82.355 127.413 73.419C127.93 77.1829 128.127 80.9838 128.002 84.781C129.146 83.812 130.077 82.976 130.7 82.425Z"></path><path fill="#E9E9E9" d="M152.8 71.842C148.145 77.142 134.6 80.582 129.354 78.853C129.715 79.841 130.054 80.753 130.342 81.513C135.854 83.056 148.367 80.073 153.465 74.635C153.238 73.685 153.029 72.735 152.8 71.842Z"></path><path fill="#E9E9E9" d="M140.109 91.982C139.576 97.8596 138.339 103.652 136.423 109.234C137.411 107.277 139.064 104.465 141.723 99.297L140.109 91.982Z"></path><path fill="#E9E9E9" d="M174.024 82.33C173.648 81.5353 173.342 80.7087 173.112 79.86C174.262 79.909 174.874 80.192 175.112 80.56C175.549 81.23 174.864 82.057 174.024 82.33Z"></path><path fill="#E9E9E9" d="M164.562 81.627C163.194 82.254 162.662 82.881 162.681 83.337C162.738 83.926 163.46 84.306 164.771 84.078C165.077 83.467 164.687 82.3 164.562 81.627Z"></path><path fill="#E9E9E9" d="M151.072 65.021C149.419 64.793 147.291 64.565 144.498 64.299C147.144 65.6661 149.684 67.2284 152.098 68.973C151.7 67.415 151.338 66.047 151.072 65.021Z"></path><path fill="#E9E9E9" d="M130.8 44.71C130.441 45.9893 129.902 47.2111 129.2 48.339C129.238 47.807 129.238 47.139 129.295 46.306C129.716 45.869 130.21 45.337 130.8 44.71Z"></path><path fill="#E9E9E9" d="M129.279 36.464C129.165 35.134 128.728 34.864 124.89 34.621C120.824 34.336 120.52 35.001 120.938 37.167C121.223 38.63 121.983 39.048 123.522 39.048C124.472 39.048 125.722 38.877 127.303 38.706C128.519 40.245 129.317 41.043 129.317 40.112C129.317 38.345 131.16 38.383 131.198 41.212C131.882 41.912 132.642 42.751 133.459 43.568C132.623 36.844 132.452 36.749 129.279 36.464Z"></path><path fill="#E9E9E9" d="M131.141 54.894C131.593 54.2219 131.969 53.5018 132.262 52.747C131.692 51.93 131.179 51.075 130.662 50.182C130.32 50.982 129.962 51.797 129.655 52.595C129.804 53.3914 130.073 54.1603 130.455 54.875C130.227 57.022 129.049 72.393 129.049 73.4C129.69 74.733 130.48 75.9888 131.405 77.143C132.436 76.0206 133.352 74.7986 134.141 73.495C133.763 70.645 131.445 55.92 131.141 54.894Z"></path><path fill="#E9E9E9" d="M107.182 85.484C107.525 85.239 108.227 85.351 109.234 86.016C108.379 86.738 107.885 87.175 107.524 87.479C106.745 86.51 106.727 85.809 107.182 85.484Z"></path><path fill="#E9E9E9" d="M115.257 92.78C115.846 93.88 115.957 94.604 115.751 94.965C115.737 95.0041 115.71 95.0375 115.675 95.06C115.333 95.421 114.44 95.231 113.452 94.376C114.155 93.749 115.257 92.78 115.257 92.78Z"></path><path fill="#E9E9E9" d="M30.688 101.406C30.65 101.957 30.631 102.565 30.631 103.192C29.244 103.249 28.589 103.003 28.56 102.641C28.533 102.3 29.225 101.805 30.688 101.406Z"></path><path fill="#E9E9E9" d="M41.366 101.368C41.423 101.71 40.929 102.128 39.428 102.356C39.1149 101.828 38.9629 101.221 38.991 100.608C40.511 100.7 41.309 101.026 41.366 101.368Z"></path><path fill="#E9E9E9" d="M63.748 76.364C63.312 81.695 63.157 87.341 63.048 89.911C54.366 90.12 47.033 91.469 43.67 93.939C43.689 94.965 43.708 95.972 43.765 96.939C48.82 93.277 59.848 92.647 66.109 92.531C65.086 88.741 64.306 81.517 63.748 76.364Z"></path><path fill="#E9E9E9" d="M44.482 80.639C44.368 81.627 44.273 82.596 44.197 83.527C43.285 83.827 42.088 84.21 40.91 84.572C39.675 84.951 38.459 85.294 37.623 85.541C39.9907 84.024 42.28 82.3879 44.482 80.639V80.639Z"></path><path fill="#E9E9E9" d="M69.923 59.055C69.8629 59.1508 69.7928 59.24 69.714 59.321C69.248 59.806 67.762 59.74 66.432 59.531C66.1474 58.7372 65.9918 57.903 65.971 57.06C67.605 58.694 69.277 59.986 69.923 59.055Z"></path><path fill="#E9E9E9" d="M70.417 45.869C70.531 43.779 67.928 44.197 67.717 45.375C67.5605 45.1004 67.3182 44.8847 67.0274 44.761C66.7366 44.6372 66.4132 44.6123 66.1068 44.6899C65.8004 44.7675 65.5279 44.9434 65.3311 45.1907C65.1342 45.438 65.0239 45.743 65.017 46.059C64.086 44.959 62.186 45.359 62.509 47.028C61.198 45.755 57.835 46.515 63.209 56.794C64.33 55.844 65.356 54.913 66.249 54.077C64.729 51.702 66.477 50.577 67.256 52.12C67.674 52.937 68.456 52.861 68.356 50.562C68.9704 50.4036 69.5684 50.1873 70.142 49.916C71.2747 49.415 72.2382 48.5967 72.916 47.56C73.913 45.964 71.994 44.064 70.417 45.869Z"></path><path fill="#E9E9E9" d="M65.553 114.592C66.712 124.263 66.997 127.816 66.94 129.83C64.6203 123.275 61.9362 116.855 58.9 110.6C60.727 111.742 62.931 113.034 65.553 114.592Z"></path><path fill="#E9E9E9" d="M175.962 90.386L176.7 93.9L179.626 93.273L178.752 89.188C178.599 88.4833 178.198 87.8567 177.623 87.4212C177.048 86.9857 176.337 86.77 175.617 86.813C175.88 87.9851 175.995 89.1853 175.962 90.386V90.386Z"></path><path fill="#E9E9E9" d="M165.835 88.866L165.645 88.904C165.257 88.9833 164.888 89.1391 164.56 89.3623C164.233 89.5855 163.953 89.8717 163.737 90.2042C163.522 90.5367 163.374 90.9088 163.304 91.2988C163.233 91.6889 163.241 92.089 163.327 92.476L164.163 96.561L167.089 95.934C167.055 95.771 165.947 89.2 165.835 88.866Z"></path><path stroke="#000000" stroke-linejoin="round" stroke-width=".75" d="M175.962 90.386L176.815 94.4306L179.741 93.8036L178.752 89.188C178.599 88.4833 178.198 87.8567 177.623 87.4212C177.048 86.9857 176.337 86.77 175.617 86.813C175.88 87.9851 175.995 89.1853 175.962 90.386Z"></path><path stroke="#000000" stroke-linejoin="round" stroke-width=".75" d="M165.835 88.866L165.645 88.904C165.257 88.9833 164.888 89.1391 164.56 89.3623C164.233 89.5856 163.953 89.8718 163.737 90.2042C163.522 90.5367 163.374 90.9088 163.304 91.2989C163.233 91.6889 163.241 92.0891 163.327 92.476L164.267 97.1146L167.193 96.4876C167.159 96.3246 165.947 89.2 165.835 88.866Z"></path><path fill="#E9E9E9" d="M29.757 98.309C30.498 97.968 30.498 99.601 29.89 99.791C29.282 99.981 29.3 98.519 29.757 98.309Z"></path><path fill="#E9E9E9" d="M89.892 99.145C90.278 98.407 91.846 98.497 91.526 99.221C91.206 99.945 89.424 100.042 89.892 99.145Z"></path><path fill="#E9E9E9" d="M116.758 91.887C116.91 92.666 118.308 91.587 118.069 90.937C117.83 90.287 116.587 91.013 116.758 91.887Z"></path><path fill="#E9E9E9" d="M172.333 76.155C173.074 76.146 173.533 77.846 172.618 77.827C171.703 77.808 171.535 76.164 172.333 76.155Z"></path><path fill="#E9E9E9" d="M189.642 93.1L189.832 105.6C189.834 105.662 189.814 105.722 189.776 105.771C189.738 105.819 189.683 105.853 189.623 105.866L185.253 106.797L185.842 109.533L183.011 110.141L182.422 107.405L167.83 110.505L168.419 113.241L165.588 113.849L165 111.115L160.63 112.046C160.571 112.054 160.51 112.043 160.457 112.016C160.403 111.989 160.359 111.946 160.33 111.894L155.43 100.394L159.93 121.636L194.187 114.359L189.642 93.1Z"></path><path fill="#E9E9E9" d="M189.091 91.83L155.366 99.012L160.686 111.495L164.866 110.602L164.296 107.942L167.127 107.334L167.697 109.994L182.289 106.897L181.738 104.237L184.569 103.629L185.139 106.289L189.3 105.415L189.091 91.83Z"></path><path stroke="#000000" stroke-linecap="round" stroke-linejoin="round" stroke-width=".75" d="M159.93 121.636L155.105 99.0664L189.357 91.7701L194.187 114.359L159.93 121.636Z"></path></g><g><path stroke="#000000" stroke-linecap="round" stroke-linejoin="round" stroke-width=".75" d="M160.945 97.8076L163.63 93.9961"></path><path stroke="#000000" stroke-linecap="round" stroke-linejoin="round" stroke-width=".75" d="M174.689 78.245L195 49.232L159.128 24.114L142.047 48.491"></path><path stroke="#000000" stroke-linecap="round" stroke-linejoin="round" stroke-width=".75" d="M139.197 128.937L147.709 116.758"></path><path stroke="#000000" stroke-linecap="round" stroke-linejoin="round" stroke-width=".75" d="M59.112 142.845L106.308 175.886L129.26 143.13"></path><path stroke="#000000" stroke-linecap="round" stroke-linejoin="round" stroke-width=".75" d="M35.381 72.773L30.118 69.087L5 104.959L44.482 132.604"></path><path stroke="#000000" stroke-linecap="round" stroke-linejoin="round" stroke-width=".75" d="M104.731 101.786L95.554 114.896L92.343 112.654"></path><path stroke="#000000" stroke-linecap="round" stroke-linejoin="round" stroke-width=".75" d="M80.829 55.369L91.393 40.264L101.368 47.237L113.148 30.441"></path><path stroke="#000000" stroke-linecap="round" stroke-linejoin="round" stroke-width=".75" d="M105.719 31.733L113.148 30.441L114.459 37.851"></path><path stroke="#000000" stroke-linecap="round" stroke-linejoin="round" stroke-width=".75" d="M34.583 52.633L41.423 51.417C45.494 50.677 44.329 44.653 40.359 45.375L36.54 46.021C32.473 46.714 31.501 40.657 35.476 39.979L42.316 38.763"></path><path stroke="#000000" stroke-linecap="round" stroke-linejoin="round" stroke-width=".75" d="M36.977 37.395L39.922 54.001"></path><path stroke="#000000" stroke-linecap="round" stroke-linejoin="round" stroke-width=".75" d="M102.508 127.759L110.754 126.296"></path><path stroke="#000000" stroke-linecap="round" stroke-linejoin="round" stroke-width=".75" d="M105.909 122.895L107.353 131.16"></path><path stroke="#000000" stroke-linecap="round" stroke-linejoin="round" stroke-width=".75" d="M153.941 143.434L165.474 141.401"></path><path stroke="#000000" stroke-linecap="round" stroke-linejoin="round" stroke-width=".75" d="M158.691 136.651L160.724 148.203"></path><path stroke="#000000" stroke-linecap="round" stroke-linejoin="round" stroke-width=".75" d="M63.045 167.773C64.5246 167.773 65.724 166.574 65.724 165.094C65.724 163.614 64.5246 162.415 63.045 162.415C61.5654 162.415 60.366 163.614 60.366 165.094C60.366 166.574 61.5654 167.773 63.045 167.773Z"></path><path stroke="#000000" stroke-linecap="round" stroke-linejoin="round" stroke-width=".75" d="M38.079 139.1L23.335 140.943L20.58 118.843L47.332 115.5"></path><path stroke="#000000" stroke-linecap="round" stroke-linejoin="round" stroke-width=".75" d="M70.134 49.951C71.2834 49.4536 72.2607 48.6286 72.944 47.579C73.913 45.979 72.032 44.064 70.436 45.888C70.55 43.779 67.966 44.216 67.736 45.394C67.578 45.1216 67.3356 44.9081 67.0454 44.7859C66.7552 44.6637 66.433 44.6394 66.1278 44.7167C65.8225 44.7941 65.5508 44.9688 65.3538 45.2144C65.1568 45.4601 65.0452 45.7632 65.036 46.078C64.105 44.978 62.205 45.378 62.528 47.047C61.217 45.774 57.854 46.534 63.228 56.813"></path><path stroke="#000000" stroke-linecap="round" stroke-linejoin="round" stroke-width=".75" d="M66.432 59.531C66.1527 58.7365 66.0034 57.9021 65.99 57.06C67.49 58.575 69.049 59.812 69.784 59.243"></path><path stroke="#000000" stroke-linecap="round" stroke-linejoin="round" stroke-width=".75" d="M45.546 72.108C43.475 87.384 43.01 96.05 44.691 104.294C46.222 111.801 48.947 121.945 50.353 126.676C43.817 133.345 31.011 146.132 29.662 147.728"></path><path stroke="#000000" stroke-linecap="round" stroke-linejoin="round" stroke-width=".75" d="M31.125 151.034C29.643 149.818 29.133 148.453 29.662 147.728C30.408 146.706 33.331 146.983 39.048 150.828C44.104 154.228 46.083 156.796 45.641 157.728C45.378 158.28 44.235 158.26 42.354 157.443"></path><path stroke="#000000" stroke-linecap="round" stroke-linejoin="round" stroke-width=".75" d="M81.646 149.989C79.898 149.666 78.92 149.095 79.005 148.279C79.126 147.119 81.551 146.397 87.916 146.759C93.916 147.1 95.616 148.392 95.687 149.343C95.729 149.913 94.908 150.426 92.97 150.426"></path><path stroke="#000000" stroke-linecap="round" stroke-linejoin="round" stroke-width=".75" d="M45.622 157.7C65.477 136.116 66.342 134.728 66.822 131.176C67.083 129.256 67.012 126.844 65.549 114.57"></path><path stroke="#000000" stroke-linecap="round" stroke-linejoin="round" stroke-width=".75" d="M27.534 155.119C28.751 153.029 49.004 167.659 47.598 169.768C46.5 171.421 25.73 158.217 27.534 155.119Z"></path><path stroke="#000000" stroke-linecap="round" stroke-linejoin="round" stroke-width=".75" d="M80.411 155.385C80.596 153.105 103.723 157.323 103.382 159.698C103.115 161.56 80.138 158.747 80.411 155.385Z"></path><path stroke="#000000" stroke-linecap="round" stroke-linejoin="round" stroke-width=".75" d="M33.918 147.937C31.885 150.046 28.636 153.937 27.534 155.1"></path><path stroke="#000000" stroke-linecap="round" stroke-linejoin="round" stroke-width=".75" d="M42.7 153.561C39.793 158.824 48.514 163.821 47.6 169.768"></path><path stroke="#000000" stroke-linecap="round" stroke-linejoin="round" stroke-width=".75" d="M80.411 155.385C80.905 152.402 81.703 151.813 81.969 146.816"></path><path stroke="#000000" stroke-linecap="round" stroke-linejoin="round" stroke-width=".75" d="M91.906 147.215C91.606 153.466 102.641 153.675 103.401 159.698"></path><path stroke="#000000" stroke-linecap="round" stroke-linejoin="round" stroke-width=".75" d="M79.024 148.279C79.271 142.009 78.511 125.099 78.207 122.344C59.853 110.583 52.785 108.379 51.645 103.192"></path><path stroke="#000000" stroke-linecap="round" stroke-linejoin="round" stroke-width=".75" d="M95.687 149.343C94.528 118.867 94.187 115.334 91.792 111.761C89.453 108.266 87.517 106.783 77.314 100.532"></path><path stroke="#000000" stroke-linecap="round" stroke-linejoin="round" stroke-width=".75" d="M28.56 102.641C27.42 87.422 27.535 81.5 29.966 77.9C33.466 72.733 43.627 67.126 54.324 64.3C67.757 60.746 73.21 61.241 75.661 63.445C77.661 65.251 78.261 68.083 78.853 86.85C82.529 87.285 91.071 88.315 92.799 88.62C95.25 90.767 95.668 98.12 92.799 100.837C79.385 100.837 73.265 100.688 70.569 98.994C66.405 96.377 65.629 93.883 63.729 76.384C63.293 81.705 63.122 87.327 63.029 89.904"></path><path stroke="#000000" stroke-linecap="round" stroke-linejoin="round" stroke-width=".75" d="M77.751 86.719L78.851 86.849"></path><path stroke="#000000" stroke-linecap="round" stroke-linejoin="round" stroke-width=".75" d="M30.612 103.192C29.225 103.23 28.577 103.002 28.541 102.641C28.482 102.052 30.46 101.116 34.697 100.703C39.029 100.28 41.252 100.779 41.347 101.349C41.404 101.691 40.91 102.109 39.409 102.337"></path><path stroke="#000000" stroke-linecap="round" stroke-linejoin="round" stroke-width=".75" d="M44.2 83.527C42.319 84.154 39.241 85.085 37.626 85.527C40.0009 84.0274 42.2907 82.3972 44.485 80.644"></path><path stroke="#000000" stroke-linecap="round" stroke-linejoin="round" stroke-width=".75" d="M41.366 101.368C41.176 97.378 40.91 88.885 40.91 84.568"></path><path stroke="#000000" stroke-linecap="round" stroke-linejoin="round" stroke-width=".75" d="M28.2 97.473C29.853 95.098 39.543 94.262 41.139 95.873"></path><path stroke="#000000" stroke-linecap="round" stroke-linejoin="round" stroke-width=".75" d="M87.156 87.859C89.55 90.044 89.322 98.347 86.282 100.817"></path><path stroke="#000000" stroke-linecap="round" stroke-linejoin="round" stroke-width=".75" d="M43.76 96.941C47.673 94.111 55.876 92.667 66.093 92.533"></path><path stroke="#000000" stroke-linecap="round" stroke-linejoin="round" stroke-width=".75" d="M43.665 93.939C47.33 91.239 55.765 89.874 65.502 89.873"></path><path stroke="#000000" stroke-linecap="round" stroke-linejoin="round" stroke-width=".75" d="M38.991 100.589C38.9597 101.275 39.1605 101.951 39.561 102.508C39.861 102.888 41.861 104.671 42.297 105.32C42.777 106.039 43.019 109.063 42.639 109.386C42.145 109.805 38.82 110.146 37.49 110.146C36.54 110.146 36.768 108.531 39.903 107.733C37.303 107.885 35.552 107.125 35.115 104.864"></path><path stroke="#000000" stroke-linecap="round" stroke-linejoin="round" stroke-width=".75" d="M30.688 101.406C30.5361 104.199 30.5869 106.999 30.84 109.785"></path><path stroke="#000000" stroke-linecap="round" stroke-linejoin="round" stroke-width=".75" d="M33.367 110.032C33.267 108.303 35.327 108.075 35.533 109.732C35.687 110.967 35.763 111.841 35.856 112.832C35.919 113.132 35.8603 113.444 35.6928 113.701C35.5253 113.957 35.2628 114.137 34.963 114.2C34.6632 114.263 34.3506 114.204 34.094 114.037C33.8375 113.869 33.658 113.607 33.595 113.307C33.463 112.22 33.3869 111.127 33.367 110.032V110.032Z"></path><path stroke="#000000" stroke-linecap="round" stroke-linejoin="round" stroke-width=".75" d="M40.226 109.956C40.397 110.756 40.535 111.399 40.682 112.103C40.7518 112.388 40.7108 112.689 40.5673 112.944C40.4238 113.2 40.1885 113.392 39.909 113.481C39.6296 113.57 39.3267 113.549 39.0618 113.423C38.7969 113.298 38.5897 113.076 38.482 112.803C38.2603 111.928 38.0952 111.039 37.988 110.143"></path><path stroke="#000000" stroke-linecap="round" stroke-linejoin="round" stroke-width=".75" d="M31.182 110.032C31.182 108.36 33.182 108.246 33.291 109.861C33.371 111.061 33.391 111.913 33.424 112.861C33.4606 113.152 33.3823 113.445 33.2058 113.679C33.0293 113.913 32.7685 114.069 32.4789 114.113C32.1893 114.158 31.8937 114.088 31.655 113.918C31.4164 113.748 31.2535 113.491 31.201 113.203C31.107 112.407 31.182 111.552 31.182 110.032Z"></path><path stroke="#000000" stroke-linecap="round" stroke-linejoin="round" stroke-width=".75" d="M37.946 110.146C38.098 111.058 38.196 111.78 38.307 112.578C38.3742 112.877 38.3227 113.19 38.1632 113.451C38.0037 113.712 37.7488 113.901 37.4524 113.977C37.1561 114.054 36.8416 114.012 36.5756 113.861C36.3095 113.71 36.1128 113.461 36.027 113.167C35.8448 112.066 35.718 110.956 35.647 109.842C35.493 108.36 36.939 107.904 37.585 108.778"></path><path stroke="#000000" stroke-linecap="round" stroke-linejoin="round" stroke-width=".75" d="M102.432 100C102.656 98.422 100.885 97.965 100.494 99.449C100.339 100.037 100.134 100.836 100 101.449C99.9298 101.719 99.9686 102.007 100.108 102.249C100.248 102.491 100.477 102.668 100.746 102.743C101.015 102.818 101.303 102.784 101.547 102.648C101.791 102.513 101.973 102.287 102.052 102.019C102.213 101.353 102.34 100.679 102.432 100V100Z"></path><path stroke="#000000" stroke-linecap="round" stroke-linejoin="round" stroke-width=".75" d="M100.418 99.525C100.827 97.955 98.967 97.376 98.48 98.86C98.287 99.448 98.016 100.283 97.891 100.703C97.446 102.196 99.47 102.851 99.886 101.539C100.115 100.817 100.294 100 100.418 99.525Z"></path><path stroke="#000000" stroke-linecap="round" stroke-linejoin="round" stroke-width=".75" d="M98.366 99.069C98.845 97.563 97.192 96.924 96.504 98.309C96.315 98.69 96.024 99.371 95.763 100.057C95.637 100.309 95.6163 100.601 95.7054 100.868C95.7945 101.135 95.9861 101.356 96.238 101.482C96.49 101.608 96.7816 101.629 97.0489 101.54C97.3161 101.451 97.537 101.259 97.663 101.007C97.867 100.568 98.209 99.561 98.366 99.069Z"></path><path stroke="#000000" stroke-linecap="round" stroke-linejoin="round" stroke-width=".75" d="M104.427 100.285C104.478 98.746 102.807 98.385 102.527 99.848C102.411 100.456 102.237 101.648 102.204 101.976C102.216 102.221 102.314 102.453 102.481 102.633C102.648 102.812 102.873 102.927 103.116 102.956C103.36 102.986 103.606 102.928 103.811 102.794C104.016 102.66 104.167 102.458 104.237 102.223C104.337 101.581 104.4 100.934 104.427 100.285Z"></path><path stroke="#000000" stroke-linecap="round" stroke-linejoin="round" stroke-width=".75" d="M89.436 146.892C88.636 121.071 88.923 116.853 87.042 114.06C84.381 110.108 81.185 108.35 66.332 99.544C63.899 98.102 63.178 96.485 63.064 92.644"></path><path stroke="#000000" stroke-linecap="round" stroke-linejoin="round" stroke-width=".75" d="M58.9 110.583C61.9266 116.848 64.6106 123.273 66.94 129.83"></path><path stroke="#000000" stroke-linecap="round" stroke-linejoin="round" stroke-width=".75" d="M123.541 39.029C124.852 46.529 125.232 47.654 126.41 47.788C127.569 47.92 128.291 47.446 130.818 44.71C130.535 46.024 129.997 47.2696 129.234 48.376"></path><path stroke="#000000" stroke-linecap="round" stroke-linejoin="round" stroke-width=".75" d="M129.279 36.464C129.146 35.153 128.709 34.887 124.909 34.621C120.843 34.336 120.539 35.001 120.957 37.167C121.394 39.542 123.142 39.162 127.303 38.706C128.519 40.245 129.317 41.062 129.317 40.112C129.317 38.345 131.16 38.383 131.198 41.212C131.853 42.1294 132.613 42.9683 133.46 43.712C132.623 36.978 132.454 36.749 129.279 36.464Z"></path><path stroke="#000000" stroke-linecap="round" stroke-linejoin="round" stroke-width=".75" d="M129.281 46.311C129.41 48.011 129.197 50.071 127.968 50.771C124.377 52.842 122.935 53.679 121.717 55.407C119.384 58.716 119.532 60.917 119.095 75.623C114.687 79.423 109.195 83.698 107.182 85.503"></path><path stroke="#000000" stroke-linecap="round" stroke-linejoin="round" stroke-width=".75" d="M107.524 87.479C106.724 86.51 106.724 85.812 107.182 85.503C107.813 85.073 109.63 85.771 112.407 88.942C115.387 92.342 116.144 94.297 115.751 94.984C115.481 95.457 114.516 95.326 113.451 94.395"></path><path stroke="#000000" stroke-linecap="round" stroke-linejoin="round" stroke-width=".75" d="M164.79 84.078C163.479 84.306 162.75 83.927 162.7 83.337C162.634 82.559 164.146 81.35 168.533 80.392C173.456 79.318 175.117 79.992 175.221 80.848C175.216 81.1938 175.095 81.528 174.878 81.7967C174.66 82.0655 174.358 82.2533 174.021 82.33"></path><path stroke="#000000" stroke-linecap="round" stroke-linejoin="round" stroke-width=".75" d="M162.7 83.356C159.527 69.505 159.2 68.084 157.893 67.13C156.103 65.824 154.853 65.306 144.479 64.337C147.125 65.7041 149.665 67.2664 152.079 69.011"></path><path stroke="#000000" stroke-linecap="round" stroke-linejoin="round" stroke-width=".75" d="M176.171 118.183C179.671 120.292 182.365 121.907 183.486 122.705C184.151 126.905 179.268 133.269 176.114 133.934C152.402 120.577 149.554 118.846 147.101 116.134C144.766 113.548 143.947 109.351 140.09 92.004C139.249 91.9542 138.421 91.7682 137.639 91.453"></path><path stroke="#000000" stroke-linecap="round" stroke-linejoin="round" stroke-width=".75" d="M151.072 65.04C152.136 69.106 154.586 78.568 155.727 85.389C156.353 89.132 157.114 94.189 157.779 98.499"></path><path stroke="#000000" stroke-linecap="round" stroke-linejoin="round" stroke-width=".75" d="M124.434 57.839C124.215 59.9487 124.215 62.0753 124.434 64.185C124.591 65.631 129.925 80.585 131.084 83.337C122.284 102.508 120.905 106.061 120.653 109.196C120.353 112.896 120.748 115.371 127.816 142.826C132.129 144.099 139.596 141.819 141.629 139.52C139.653 130.989 137.639 122.477 135.454 111.381C136.195 109.253 137.905 106.65 141.705 99.281"></path><path stroke="#000000" stroke-linecap="round" stroke-linejoin="round" stroke-width=".75" d="M183.467 124.548C185.175 124.991 186.851 125.549 188.483 126.22C188.274 131.331 184.227 144.669 181.13 148.374C179.553 145.999 177.9 137.164 177.596 133.288"></path><path stroke="#000000" stroke-linecap="round" stroke-linejoin="round" stroke-width=".75" d="M140.546 140.432C141.642 142.206 142.547 144.091 143.246 146.056C139.598 149.799 128.578 154.739 123.676 155.29C125.214 150.936 127.44 146.856 130.269 143.206"></path><path stroke="#000000" stroke-linecap="round" stroke-linejoin="round" stroke-width=".75" d="M115.731 95.017C119.78 91.878 128.113 84.751 130.723 82.406"></path><path stroke="#000000" stroke-linecap="round" stroke-linejoin="round" stroke-width=".75" d="M111.552 81.855C115.105 82.14 120.121 88.733 119.76 91.773"></path><path stroke="#000000" stroke-linecap="round" stroke-linejoin="round" stroke-width=".75" d="M161.5 78.093C162.842 75.182 172.045 73.418 173.991 74.993"></path><path stroke="#000000" stroke-linecap="round" stroke-linejoin="round" stroke-width=".75" d="M129.146 48.852C129.564 49.3973 130.095 49.8448 130.704 50.163C132.931 49.1976 135.025 47.9511 136.935 46.454"></path><path stroke="#000000" stroke-linecap="round" stroke-linejoin="round" stroke-width=".75" d="M138.076 47.18C137.276 49.802 134.485 53.754 133.82 54.628C132.576 53.3067 131.526 51.8159 130.7 50.2C129.988 51.6724 129.427 53.2137 129.028 54.8C128.661 53.0678 128.628 51.2813 128.933 49.537"></path><path stroke="#000000" stroke-linecap="round" stroke-linejoin="round" stroke-width=".75" d="M129.7 52.6C129.852 53.3956 130.121 54.164 130.5 54.88C130.272 57.008 129.094 72.38 129.094 73.405C129.728 74.7419 130.519 75.9985 131.45 77.148C132.471 76.0226 133.381 74.8008 134.167 73.5C133.787 70.65 131.467 55.925 131.167 54.9C131.604 54.2229 131.973 53.5036 132.267 52.753"></path><path stroke="#000000" stroke-linecap="round" stroke-linejoin="round" stroke-width=".75" d="M129.374 78.853C134.58 80.582 148.127 77.143 152.801 71.842"></path><path stroke="#000000" stroke-linecap="round" stroke-linejoin="round" stroke-width=".75" d="M130.362 81.513C135.853 83.071 148.621 80.013 153.485 74.654"></path><path stroke="#000000" stroke-linecap="round" stroke-linejoin="round" stroke-width=".75" d="M128.025 84.781C128.151 80.9838 127.954 77.1828 127.436 73.419"></path><path stroke="#000000" stroke-linecap="round" stroke-linejoin="round" stroke-width=".75" d="M140.09 91.963C139.557 97.8406 138.32 103.633 136.404 109.215"></path><path stroke="#000000" stroke-linecap="round" stroke-linejoin="round" stroke-width=".75" d="M135.815 81.836C136.915 86.472 136.974 86.909 138.589 86.814"></path><path stroke="#000000" stroke-linecap="round" stroke-linejoin="round" stroke-width=".75" d="M171.782 119.114C176.912 122.363 181.548 125.289 183.03 126.239"></path><path stroke="#000000" stroke-linecap="round" stroke-linejoin="round" stroke-width=".75" d="M149.552 77.675C151.794 87.175 154.34 99.981 155.138 108.455C155.651 108.816 156.43 109.329 157.418 109.975"></path><path stroke="#000000" stroke-linecap="round" stroke-linejoin="round" stroke-width=".75" d="M109.234 86.016C107.391 87.555 107.258 87.9 106.46 87.935C104.579 88.018 102.988 87.407 102.337 88.125C101.116 89.542 99.9924 91.0401 98.974 92.609C98.154 93.809 100.399 94.642 103.154 91.45C103.966 91.8708 104.857 92.117 105.77 92.1726C106.683 92.2283 107.597 92.0921 108.454 91.773"></path><path stroke="#000000" stroke-linecap="round" stroke-linejoin="round" stroke-width=".75" d="M93.863 90.1C96.238 90.442 96.73 90.553 97.416 90.157C99.045 89.218 99.716 88.057 100.646 88.333C101.027 88.444 101.406 88.561 101.805 88.694"></path><path stroke="#000000" stroke-linecap="round" stroke-linejoin="round" stroke-width=".75" d="M115.238 92.78C114.402 93.521 112.388 95.307 111.538 96.143"></path><path stroke="#000000" stroke-linecap="round" stroke-linejoin="round" stroke-width=".75" d="M106.631 92.172C111.571 94.718 112.502 96.352 110.849 97.853"></path><path stroke="#000000" stroke-linecap="round" stroke-linejoin="round" stroke-width=".75" d="M107.847 95.725C110.678 97.169 111.547 97.983 110.64 99.225C110.125 99.925 109.424 99.947 106.745 98.085"></path><path stroke="#000000" stroke-linecap="round" stroke-linejoin="round" stroke-width=".75" d="M93.711 99.7C94.452 99.776 95.345 99.89 95.82 99.966"></path><path stroke="#000000" stroke-linecap="round" stroke-linejoin="round" stroke-width=".75" d="M105.567 99.81C106.479 100.418 108.55 102.394 109.519 99.601"></path><path stroke="#000000" stroke-linecap="round" stroke-linejoin="round" stroke-width=".75" d="M104.313 101.691C105.149 101.9 106.669 102.432 107.22 100.891"></path><path stroke="#000000" stroke-linecap="round" stroke-linejoin="round" stroke-width=".75" d="M173.112 79.841C173.587 81.912 174.878 83.489 175.712 87.141C175.978 88.5633 176.023 90.018 175.845 91.454C175.768 91.6473 175.651 91.822 175.501 91.9665C175.351 92.111 175.173 92.222 174.977 92.2921C174.781 92.3622 174.572 92.3898 174.365 92.3731C174.158 92.3563 173.956 92.2956 173.774 92.195"></path><path stroke="#000000" stroke-linecap="round" stroke-linejoin="round" stroke-width=".75" d="M173.815 89.474C173.891 90.3019 173.891 91.1351 173.815 91.963C173.72 92.838 172.673 93.598 171.415 92.763"></path><path stroke="#000000" stroke-linecap="round" stroke-linejoin="round" stroke-width=".75" d="M171.44 90.158C171.5 90.9101 171.513 91.6653 171.478 92.419C171.458 92.7041 171.355 92.9772 171.182 93.2047C171.009 93.4322 170.773 93.6043 170.504 93.6998C170.234 93.7954 169.943 93.8102 169.665 93.7426C169.387 93.6749 169.135 93.5277 168.94 93.319"></path><path stroke="#000000" stroke-linecap="round" stroke-linejoin="round" stroke-width=".75" d="M168.894 90.747C169.01 91.4819 169.048 92.227 169.008 92.97C168.988 93.2928 168.847 93.596 168.612 93.8185C168.378 94.041 168.067 94.1661 167.744 94.1685C167.421 94.1709 167.108 94.0505 166.87 93.8315C166.632 93.6126 166.486 93.3114 166.462 92.989C166.301 91.1851 165.983 89.3987 165.512 87.65"></path><path stroke="#000000" stroke-linecap="round" stroke-linejoin="round" stroke-width=".75" d="M164.562 81.627C164.778 82.3086 164.879 83.0213 164.862 83.736C164.786 84.553 163.209 86.206 163.209 87.118C163.259 88.048 163.561 88.9468 164.083 89.718"></path><path stroke="#000000" stroke-linecap="round" stroke-linejoin="round" stroke-width=".75" d="M167.678 89.607C168.913 89.227 172.998 88.182 174.271 87.954"></path><path stroke="#000000" stroke-linecap="round" stroke-linejoin="round" stroke-width=".75" d="M68.27 61.6C67.4364 61.1434 66.7868 60.4118 66.432 59.53C67.76 59.738 69.259 59.813 69.714 59.32C70.514 58.485 70.759 56.511 70.134 49.95C69.5657 50.2158 68.9734 50.4267 68.365 50.58C68.46 52.88 67.679 52.956 67.265 52.138C66.483 50.601 64.738 51.72 66.258 54.095C62.326 57.752 56 63.177 49.1 65.9"></path><path stroke="#000000" stroke-linecap="round" stroke-linejoin="round" stroke-width=".75" d="M175.2 80.848C171.8 63.539 169.8 59.492 166.137 56.11C159.926 50.353 152.8 49.8 140.6 48.32C139.233 48.142 135.891 45.94 133.457 43.713"></path><path stroke="#000000" stroke-linecap="round" stroke-linejoin="round" stroke-width=".75" d="M167.764 110.258L182.356 107.161"></path><path stroke="#000000" stroke-linecap="round" stroke-linejoin="round" stroke-width=".75" d="M167.127 107.334L164.296 107.942L165.588 113.849L168.419 113.241L167.127 107.334Z"></path><path stroke="#000000" stroke-linecap="round" stroke-linejoin="round" stroke-width=".75" d="M184.569 103.629L181.738 104.237L183.011 110.141L185.842 109.533L184.569 103.629Z"></path><path stroke="#000000" stroke-linecap="round" stroke-linejoin="round" stroke-width=".75" d="M185.198 106.565L189.578 105.629L189.398 91.9629"></path><path stroke="#000000" stroke-linecap="round" stroke-linejoin="round" stroke-width=".75" d="M164.925 110.878L160.561 111.788L155.144 99.2515"></path><path stroke="#000000" stroke-linejoin="round" stroke-width=".75" d="M31.144 113.262C31.144 113.251 31.182 109.69 31.182 109.69C30.2659 109.824 29.438 110.31 28.874 111.044C28.31 111.778 28.0542 112.703 28.161 113.623L28.7217 117.795L31.6857 117.415L31.144 113.262Z"></path><path stroke="#000000" stroke-linejoin="round" stroke-width=".75" d="M43.7 111.723C43.5907 110.858 43.1628 110.066 42.5 109.5C41.7639 109.76 40.9978 109.926 40.22 109.994C40.381 110.694 40.432 110.942 40.6 111.78C40.756 111.936 40.7947 112.649 41.2747 116.227L44.2387 115.847L43.7 111.723Z"></path></g></g></g></svg>